<mxfile host="Electron" modified="2025-04-17T17:23:27.016Z" agent="Mozilla/5.0 (Windows NT 10.0; Win64; x64) AppleWebKit/537.36 (KHTML, like Gecko) draw.io/21.6.1 Chrome/112.0.5615.204 Electron/24.6.1 Safari/537.36" etag="2b7FAl5Mvfspwz5f_Ibc" version="21.6.1" type="device">
  <diagram name="Page-1" id="_nUEg1OO4axg-l0EBhOR">
    <mxGraphModel dx="1276" dy="606" grid="1" gridSize="10" guides="1" tooltips="1" connect="1" arrows="1" fold="1" page="1" pageScale="1" pageWidth="850" pageHeight="1100" math="0" shadow="0">
      <root>
        <mxCell id="0" />
        <mxCell id="1" parent="0" />
        <mxCell id="oEjiscb--eVqVBD1iAIG-1" value="" style="rounded=0;whiteSpace=wrap;html=1;" parent="1" vertex="1">
          <mxGeometry x="220" y="60" width="270" height="650" as="geometry" />
        </mxCell>
        <mxCell id="oEjiscb--eVqVBD1iAIG-2" value="" style="rounded=0;whiteSpace=wrap;html=1;" parent="1" vertex="1">
          <mxGeometry x="630" y="70" width="190" height="230" as="geometry" />
        </mxCell>
        <mxCell id="oEjiscb--eVqVBD1iAIG-3" value="" style="rounded=0;whiteSpace=wrap;html=1;fillColor=#F8CECC;" parent="1" vertex="1">
          <mxGeometry x="235" y="90" width="240" height="160" as="geometry" />
        </mxCell>
        <mxCell id="oEjiscb--eVqVBD1iAIG-4" value="Type[0]" style="rounded=0;whiteSpace=wrap;html=1;" parent="1" vertex="1">
          <mxGeometry x="730" y="80" width="70" height="20" as="geometry" />
        </mxCell>
        <mxCell id="oEjiscb--eVqVBD1iAIG-5" value="Length[0]" style="rounded=0;whiteSpace=wrap;html=1;" parent="1" vertex="1">
          <mxGeometry x="730" y="100" width="70" height="20" as="geometry" />
        </mxCell>
        <mxCell id="oEjiscb--eVqVBD1iAIG-6" value="Value[0]" style="rounded=0;whiteSpace=wrap;html=1;" parent="1" vertex="1">
          <mxGeometry x="730" y="120" width="70" height="20" as="geometry" />
        </mxCell>
        <mxCell id="oEjiscb--eVqVBD1iAIG-7" value="Type[1]" style="rounded=0;whiteSpace=wrap;html=1;" parent="1" vertex="1">
          <mxGeometry x="730" y="140" width="70" height="20" as="geometry" />
        </mxCell>
        <mxCell id="oEjiscb--eVqVBD1iAIG-8" value="Length[1]" style="rounded=0;whiteSpace=wrap;html=1;" parent="1" vertex="1">
          <mxGeometry x="730" y="160" width="70" height="20" as="geometry" />
        </mxCell>
        <mxCell id="oEjiscb--eVqVBD1iAIG-9" value="Value[1]" style="rounded=0;whiteSpace=wrap;html=1;" parent="1" vertex="1">
          <mxGeometry x="730" y="180" width="70" height="20" as="geometry" />
        </mxCell>
        <mxCell id="oEjiscb--eVqVBD1iAIG-10" value="Type[n]" style="rounded=0;whiteSpace=wrap;html=1;" parent="1" vertex="1">
          <mxGeometry x="730" y="220" width="70" height="20" as="geometry" />
        </mxCell>
        <mxCell id="oEjiscb--eVqVBD1iAIG-11" value="Length[n]" style="rounded=0;whiteSpace=wrap;html=1;" parent="1" vertex="1">
          <mxGeometry x="730" y="240" width="70" height="20" as="geometry" />
        </mxCell>
        <mxCell id="oEjiscb--eVqVBD1iAIG-12" value="Value[n]" style="rounded=0;whiteSpace=wrap;html=1;" parent="1" vertex="1">
          <mxGeometry x="730" y="260" width="70" height="20" as="geometry" />
        </mxCell>
        <mxCell id="oEjiscb--eVqVBD1iAIG-13" value="..." style="rounded=0;whiteSpace=wrap;html=1;" parent="1" vertex="1">
          <mxGeometry x="730" y="200" width="70" height="20" as="geometry" />
        </mxCell>
        <mxCell id="oEjiscb--eVqVBD1iAIG-14" value="Header Data" style="text;html=1;strokeColor=none;fillColor=none;align=center;verticalAlign=middle;whiteSpace=wrap;rounded=0;" parent="1" vertex="1">
          <mxGeometry x="630" y="80" width="90" height="30" as="geometry" />
        </mxCell>
        <mxCell id="oEjiscb--eVqVBD1iAIG-15" value="Device" style="text;html=1;strokeColor=none;fillColor=none;align=center;verticalAlign=middle;whiteSpace=wrap;rounded=0;" parent="1" vertex="1">
          <mxGeometry x="325" y="60" width="60" height="30" as="geometry" />
        </mxCell>
        <mxCell id="oEjiscb--eVqVBD1iAIG-16" value="Bootloader Partition" style="text;html=1;strokeColor=none;fillColor=none;align=center;verticalAlign=middle;whiteSpace=wrap;rounded=0;" parent="1" vertex="1">
          <mxGeometry x="295" y="90" width="120" height="30" as="geometry" />
        </mxCell>
        <mxCell id="oEjiscb--eVqVBD1iAIG-18" value="0x800000" style="text;html=1;strokeColor=none;fillColor=none;align=center;verticalAlign=middle;whiteSpace=wrap;rounded=0;" parent="1" vertex="1">
          <mxGeometry x="520" y="70" width="60" height="30" as="geometry" />
        </mxCell>
        <mxCell id="oEjiscb--eVqVBD1iAIG-19" value="IVT" style="rounded=0;whiteSpace=wrap;html=1;" parent="1" vertex="1">
          <mxGeometry x="240" y="115" width="230" height="25" as="geometry" />
        </mxCell>
        <mxCell id="oEjiscb--eVqVBD1iAIG-23" value="" style="endArrow=none;dashed=1;html=1;dashPattern=1 3;strokeWidth=2;rounded=0;entryX=0;entryY=0.5;entryDx=0;entryDy=0;exitX=1;exitY=0;exitDx=0;exitDy=0;" parent="1" source="oEjiscb--eVqVBD1iAIG-3" target="oEjiscb--eVqVBD1iAIG-18" edge="1">
          <mxGeometry width="50" height="50" relative="1" as="geometry">
            <mxPoint x="560" y="180" as="sourcePoint" />
            <mxPoint x="610" y="130" as="targetPoint" />
          </mxGeometry>
        </mxCell>
        <mxCell id="oEjiscb--eVqVBD1iAIG-25" value="0x80A000" style="text;html=1;strokeColor=none;fillColor=none;align=center;verticalAlign=middle;whiteSpace=wrap;rounded=0;" parent="1" vertex="1">
          <mxGeometry x="520" y="240" width="60" height="30" as="geometry" />
        </mxCell>
        <mxCell id="oEjiscb--eVqVBD1iAIG-27" value="" style="rounded=0;whiteSpace=wrap;html=1;fillColor=#FFE599;" parent="1" vertex="1">
          <mxGeometry x="235" y="255" width="240" height="65" as="geometry" />
        </mxCell>
        <mxCell id="oEjiscb--eVqVBD1iAIG-31" value="" style="endArrow=none;dashed=1;html=1;dashPattern=1 3;strokeWidth=2;rounded=0;entryX=0;entryY=0.5;entryDx=0;entryDy=0;exitX=1;exitY=0;exitDx=0;exitDy=0;" parent="1" source="oEjiscb--eVqVBD1iAIG-27" target="oEjiscb--eVqVBD1iAIG-25" edge="1">
          <mxGeometry width="50" height="50" relative="1" as="geometry">
            <mxPoint x="570" y="580" as="sourcePoint" />
            <mxPoint x="620" y="530" as="targetPoint" />
          </mxGeometry>
        </mxCell>
        <mxCell id="oEjiscb--eVqVBD1iAIG-32" value="0x800004" style="text;html=1;strokeColor=none;fillColor=none;align=center;verticalAlign=middle;whiteSpace=wrap;rounded=0;" parent="1" vertex="1">
          <mxGeometry x="520" y="100" width="60" height="30" as="geometry" />
        </mxCell>
        <mxCell id="oEjiscb--eVqVBD1iAIG-34" value="" style="endArrow=none;dashed=1;html=1;dashPattern=1 3;strokeWidth=2;rounded=0;entryX=0;entryY=0.5;entryDx=0;entryDy=0;exitX=1;exitY=0;exitDx=0;exitDy=0;" parent="1" source="oEjiscb--eVqVBD1iAIG-19" target="oEjiscb--eVqVBD1iAIG-32" edge="1">
          <mxGeometry width="50" height="50" relative="1" as="geometry">
            <mxPoint x="590" y="190" as="sourcePoint" />
            <mxPoint x="640" y="140" as="targetPoint" />
          </mxGeometry>
        </mxCell>
        <mxCell id="oEjiscb--eVqVBD1iAIG-43" value="Keystore Partition" style="text;html=1;strokeColor=none;fillColor=none;align=center;verticalAlign=middle;whiteSpace=wrap;rounded=0;" parent="1" vertex="1">
          <mxGeometry x="295" y="255" width="120" height="30" as="geometry" />
        </mxCell>
        <mxCell id="oEjiscb--eVqVBD1iAIG-61" value="" style="rounded=0;whiteSpace=wrap;html=1;fillColor=#CCFFFF;" parent="1" vertex="1">
          <mxGeometry x="235" y="330" width="240" height="150" as="geometry" />
        </mxCell>
        <mxCell id="oEjiscb--eVqVBD1iAIG-62" value="Executable Partition" style="text;html=1;strokeColor=none;fillColor=none;align=center;verticalAlign=middle;whiteSpace=wrap;rounded=0;" parent="1" vertex="1">
          <mxGeometry x="292.5" y="330" width="125" height="20" as="geometry" />
        </mxCell>
        <mxCell id="oEjiscb--eVqVBD1iAIG-64" value="0x80B000" style="text;html=1;strokeColor=none;fillColor=none;align=center;verticalAlign=middle;whiteSpace=wrap;rounded=0;" parent="1" vertex="1">
          <mxGeometry x="520" y="320" width="60" height="30" as="geometry" />
        </mxCell>
        <mxCell id="oEjiscb--eVqVBD1iAIG-65" value="Header" style="rounded=0;whiteSpace=wrap;html=1;" parent="1" vertex="1">
          <mxGeometry x="240" y="380" width="230" height="40" as="geometry" />
        </mxCell>
        <mxCell id="oEjiscb--eVqVBD1iAIG-66" value="" style="endArrow=none;dashed=1;html=1;dashPattern=1 3;strokeWidth=2;rounded=0;entryX=0;entryY=0.5;entryDx=0;entryDy=0;exitX=0.987;exitY=0.067;exitDx=0;exitDy=0;exitPerimeter=0;" parent="1" source="oEjiscb--eVqVBD1iAIG-94" target="oEjiscb--eVqVBD1iAIG-64" edge="1">
          <mxGeometry width="50" height="50" relative="1" as="geometry">
            <mxPoint x="500" y="450" as="sourcePoint" />
            <mxPoint x="550" y="400" as="targetPoint" />
          </mxGeometry>
        </mxCell>
        <mxCell id="oEjiscb--eVqVBD1iAIG-67" value="0x80B060" style="text;html=1;strokeColor=none;fillColor=none;align=center;verticalAlign=middle;whiteSpace=wrap;rounded=0;" parent="1" vertex="1">
          <mxGeometry x="520" y="355" width="60" height="30" as="geometry" />
        </mxCell>
        <mxCell id="oEjiscb--eVqVBD1iAIG-68" value="" style="endArrow=none;dashed=1;html=1;dashPattern=1 3;strokeWidth=2;rounded=0;entryX=0;entryY=0.5;entryDx=0;entryDy=0;exitX=1;exitY=0;exitDx=0;exitDy=0;" parent="1" source="oEjiscb--eVqVBD1iAIG-65" target="oEjiscb--eVqVBD1iAIG-67" edge="1">
          <mxGeometry width="50" height="50" relative="1" as="geometry">
            <mxPoint x="510" y="490" as="sourcePoint" />
            <mxPoint x="560" y="440" as="targetPoint" />
          </mxGeometry>
        </mxCell>
        <mxCell id="oEjiscb--eVqVBD1iAIG-69" value="Data" style="rounded=0;whiteSpace=wrap;html=1;" parent="1" vertex="1">
          <mxGeometry x="240" y="420" width="230" height="50" as="geometry" />
        </mxCell>
        <mxCell id="oEjiscb--eVqVBD1iAIG-70" value="0x80B200" style="text;html=1;strokeColor=none;fillColor=none;align=center;verticalAlign=middle;whiteSpace=wrap;rounded=0;" parent="1" vertex="1">
          <mxGeometry x="520" y="400" width="60" height="30" as="geometry" />
        </mxCell>
        <mxCell id="oEjiscb--eVqVBD1iAIG-71" value="" style="endArrow=none;dashed=1;html=1;dashPattern=1 3;strokeWidth=2;rounded=0;entryX=-0.057;entryY=0.444;entryDx=0;entryDy=0;entryPerimeter=0;exitX=1;exitY=0;exitDx=0;exitDy=0;" parent="1" source="oEjiscb--eVqVBD1iAIG-69" target="oEjiscb--eVqVBD1iAIG-70" edge="1">
          <mxGeometry width="50" height="50" relative="1" as="geometry">
            <mxPoint x="500" y="500" as="sourcePoint" />
            <mxPoint x="550" y="450" as="targetPoint" />
          </mxGeometry>
        </mxCell>
        <mxCell id="oEjiscb--eVqVBD1iAIG-72" value="" style="rounded=0;whiteSpace=wrap;html=1;fillColor=#CCCCFF;" parent="1" vertex="1">
          <mxGeometry x="235" y="485" width="240" height="150" as="geometry" />
        </mxCell>
        <mxCell id="oEjiscb--eVqVBD1iAIG-73" value="Download Partition" style="text;html=1;strokeColor=none;fillColor=none;align=center;verticalAlign=middle;whiteSpace=wrap;rounded=0;" parent="1" vertex="1">
          <mxGeometry x="292.5" y="490" width="125" height="15" as="geometry" />
        </mxCell>
        <mxCell id="oEjiscb--eVqVBD1iAIG-74" value="Header" style="rounded=0;whiteSpace=wrap;html=1;" parent="1" vertex="1">
          <mxGeometry x="240" y="540" width="230" height="40" as="geometry" />
        </mxCell>
        <mxCell id="oEjiscb--eVqVBD1iAIG-75" value="" style="endArrow=none;dashed=1;html=1;dashPattern=1 3;strokeWidth=2;rounded=0;exitX=1;exitY=0;exitDx=0;exitDy=0;" parent="1" source="oEjiscb--eVqVBD1iAIG-72" target="oEjiscb--eVqVBD1iAIG-82" edge="1">
          <mxGeometry width="50" height="50" relative="1" as="geometry">
            <mxPoint x="500" y="605" as="sourcePoint" />
            <mxPoint x="520" y="480" as="targetPoint" />
          </mxGeometry>
        </mxCell>
        <mxCell id="oEjiscb--eVqVBD1iAIG-76" value="0x845060" style="text;html=1;strokeColor=none;fillColor=none;align=center;verticalAlign=middle;whiteSpace=wrap;rounded=0;" parent="1" vertex="1">
          <mxGeometry x="520" y="520" width="60" height="30" as="geometry" />
        </mxCell>
        <mxCell id="oEjiscb--eVqVBD1iAIG-77" value="" style="endArrow=none;dashed=1;html=1;dashPattern=1 3;strokeWidth=2;rounded=0;entryX=0;entryY=0.5;entryDx=0;entryDy=0;exitX=1;exitY=0;exitDx=0;exitDy=0;" parent="1" source="oEjiscb--eVqVBD1iAIG-74" target="oEjiscb--eVqVBD1iAIG-76" edge="1">
          <mxGeometry width="50" height="50" relative="1" as="geometry">
            <mxPoint x="510" y="645" as="sourcePoint" />
            <mxPoint x="560" y="595" as="targetPoint" />
          </mxGeometry>
        </mxCell>
        <mxCell id="oEjiscb--eVqVBD1iAIG-78" value="Data" style="rounded=0;whiteSpace=wrap;html=1;" parent="1" vertex="1">
          <mxGeometry x="240" y="580" width="230" height="50" as="geometry" />
        </mxCell>
        <mxCell id="oEjiscb--eVqVBD1iAIG-79" value="0x845200" style="text;html=1;strokeColor=none;fillColor=none;align=center;verticalAlign=middle;whiteSpace=wrap;rounded=0;" parent="1" vertex="1">
          <mxGeometry x="520" y="570" width="60" height="30" as="geometry" />
        </mxCell>
        <mxCell id="oEjiscb--eVqVBD1iAIG-80" value="" style="endArrow=none;dashed=1;html=1;dashPattern=1 3;strokeWidth=2;rounded=0;entryX=-0.057;entryY=0.444;entryDx=0;entryDy=0;entryPerimeter=0;exitX=1;exitY=0;exitDx=0;exitDy=0;" parent="1" source="oEjiscb--eVqVBD1iAIG-78" target="oEjiscb--eVqVBD1iAIG-79" edge="1">
          <mxGeometry width="50" height="50" relative="1" as="geometry">
            <mxPoint x="500" y="655" as="sourcePoint" />
            <mxPoint x="550" y="605" as="targetPoint" />
          </mxGeometry>
        </mxCell>
        <mxCell id="oEjiscb--eVqVBD1iAIG-81" value="Unused" style="rounded=0;whiteSpace=wrap;html=1;fillColor=#E6E6E6;" parent="1" vertex="1">
          <mxGeometry x="235" y="640" width="240" height="60" as="geometry" />
        </mxCell>
        <mxCell id="oEjiscb--eVqVBD1iAIG-82" value="0x845000" style="text;html=1;strokeColor=none;fillColor=none;align=center;verticalAlign=middle;whiteSpace=wrap;rounded=0;" parent="1" vertex="1">
          <mxGeometry x="520" y="455" width="60" height="30" as="geometry" />
        </mxCell>
        <mxCell id="oEjiscb--eVqVBD1iAIG-83" value="0x87F000" style="text;html=1;strokeColor=none;fillColor=none;align=center;verticalAlign=middle;whiteSpace=wrap;rounded=0;" parent="1" vertex="1">
          <mxGeometry x="520" y="620" width="60" height="30" as="geometry" />
        </mxCell>
        <mxCell id="oEjiscb--eVqVBD1iAIG-84" value="" style="endArrow=none;dashed=1;html=1;dashPattern=1 3;strokeWidth=2;rounded=0;entryX=0;entryY=0.5;entryDx=0;entryDy=0;exitX=1;exitY=0;exitDx=0;exitDy=0;" parent="1" source="oEjiscb--eVqVBD1iAIG-81" target="oEjiscb--eVqVBD1iAIG-83" edge="1">
          <mxGeometry width="50" height="50" relative="1" as="geometry">
            <mxPoint x="490" y="710" as="sourcePoint" />
            <mxPoint x="540" y="660" as="targetPoint" />
          </mxGeometry>
        </mxCell>
        <mxCell id="oEjiscb--eVqVBD1iAIG-87" value="" style="shape=curlyBracket;whiteSpace=wrap;html=1;rounded=1;labelPosition=left;verticalLabelPosition=middle;align=right;verticalAlign=middle;" parent="1" vertex="1">
          <mxGeometry x="190" y="255" width="20" height="65" as="geometry" />
        </mxCell>
        <mxCell id="oEjiscb--eVqVBD1iAIG-88" value="0x1000" style="text;html=1;strokeColor=none;fillColor=none;align=center;verticalAlign=middle;whiteSpace=wrap;rounded=0;" parent="1" vertex="1">
          <mxGeometry x="130" y="270" width="60" height="30" as="geometry" />
        </mxCell>
        <mxCell id="oEjiscb--eVqVBD1iAIG-89" value="" style="shape=curlyBracket;whiteSpace=wrap;html=1;rounded=1;labelPosition=left;verticalLabelPosition=middle;align=right;verticalAlign=middle;" parent="1" vertex="1">
          <mxGeometry x="190" y="355" width="20" height="25" as="geometry" />
        </mxCell>
        <mxCell id="oEjiscb--eVqVBD1iAIG-90" value="0x60" style="text;html=1;strokeColor=none;fillColor=none;align=center;verticalAlign=middle;whiteSpace=wrap;rounded=0;" parent="1" vertex="1">
          <mxGeometry x="130" y="355" width="60" height="30" as="geometry" />
        </mxCell>
        <mxCell id="oEjiscb--eVqVBD1iAIG-93" value="Signature" style="rounded=0;whiteSpace=wrap;html=1;" parent="1" vertex="1">
          <mxGeometry x="240" y="515" width="230" height="25" as="geometry" />
        </mxCell>
        <mxCell id="oEjiscb--eVqVBD1iAIG-94" value="Signature" style="rounded=0;whiteSpace=wrap;html=1;" parent="1" vertex="1">
          <mxGeometry x="240" y="355" width="230" height="25" as="geometry" />
        </mxCell>
        <mxCell id="oEjiscb--eVqVBD1iAIG-95" value="" style="shape=curlyBracket;whiteSpace=wrap;html=1;rounded=1;labelPosition=left;verticalLabelPosition=middle;align=right;verticalAlign=middle;" parent="1" vertex="1">
          <mxGeometry x="190" y="640" width="20" height="60" as="geometry" />
        </mxCell>
        <mxCell id="oEjiscb--eVqVBD1iAIG-96" value="0x1000" style="text;html=1;strokeColor=none;fillColor=none;align=center;verticalAlign=middle;whiteSpace=wrap;rounded=0;" parent="1" vertex="1">
          <mxGeometry x="120" y="655" width="60" height="30" as="geometry" />
        </mxCell>
        <mxCell id="oEjiscb--eVqVBD1iAIG-97" value="" style="shape=curlyBracket;whiteSpace=wrap;html=1;rounded=1;labelPosition=left;verticalLabelPosition=middle;align=right;verticalAlign=middle;" parent="1" vertex="1">
          <mxGeometry x="190" y="380" width="20" height="40" as="geometry" />
        </mxCell>
        <mxCell id="oEjiscb--eVqVBD1iAIG-98" value="0x1A0" style="text;html=1;strokeColor=none;fillColor=none;align=center;verticalAlign=middle;whiteSpace=wrap;rounded=0;" parent="1" vertex="1">
          <mxGeometry x="130" y="385" width="60" height="30" as="geometry" />
        </mxCell>
        <mxCell id="oEjiscb--eVqVBD1iAIG-99" value="" style="shape=curlyBracket;whiteSpace=wrap;html=1;rounded=1;labelPosition=left;verticalLabelPosition=middle;align=right;verticalAlign=middle;" parent="1" vertex="1">
          <mxGeometry x="190" y="420" width="20" height="50" as="geometry" />
        </mxCell>
        <mxCell id="oEjiscb--eVqVBD1iAIG-100" value="0x39E00" style="text;html=1;strokeColor=none;fillColor=none;align=center;verticalAlign=middle;whiteSpace=wrap;rounded=0;" parent="1" vertex="1">
          <mxGeometry x="130" y="430" width="60" height="30" as="geometry" />
        </mxCell>
        <mxCell id="oEjiscb--eVqVBD1iAIG-101" value="" style="shape=curlyBracket;whiteSpace=wrap;html=1;rounded=1;labelPosition=left;verticalLabelPosition=middle;align=right;verticalAlign=middle;" parent="1" vertex="1">
          <mxGeometry x="190" y="515" width="20" height="25" as="geometry" />
        </mxCell>
        <mxCell id="oEjiscb--eVqVBD1iAIG-102" value="0x60" style="text;html=1;strokeColor=none;fillColor=none;align=center;verticalAlign=middle;whiteSpace=wrap;rounded=0;" parent="1" vertex="1">
          <mxGeometry x="130" y="512.5" width="60" height="30" as="geometry" />
        </mxCell>
        <mxCell id="oEjiscb--eVqVBD1iAIG-103" value="" style="shape=curlyBracket;whiteSpace=wrap;html=1;rounded=1;labelPosition=left;verticalLabelPosition=middle;align=right;verticalAlign=middle;" parent="1" vertex="1">
          <mxGeometry x="190" y="540" width="20" height="40" as="geometry" />
        </mxCell>
        <mxCell id="oEjiscb--eVqVBD1iAIG-104" value="0x1A0" style="text;html=1;strokeColor=none;fillColor=none;align=center;verticalAlign=middle;whiteSpace=wrap;rounded=0;" parent="1" vertex="1">
          <mxGeometry x="130" y="545" width="60" height="30" as="geometry" />
        </mxCell>
        <mxCell id="oEjiscb--eVqVBD1iAIG-105" value="" style="shape=curlyBracket;whiteSpace=wrap;html=1;rounded=1;labelPosition=left;verticalLabelPosition=middle;align=right;verticalAlign=middle;" parent="1" vertex="1">
          <mxGeometry x="190" y="580" width="20" height="50" as="geometry" />
        </mxCell>
        <mxCell id="oEjiscb--eVqVBD1iAIG-106" value="0x39E00" style="text;html=1;strokeColor=none;fillColor=none;align=center;verticalAlign=middle;whiteSpace=wrap;rounded=0;" parent="1" vertex="1">
          <mxGeometry x="130" y="590" width="60" height="30" as="geometry" />
        </mxCell>
        <mxCell id="rMbF7JVK91aowrzrqFm0-1" value="" style="shape=curlyBracket;whiteSpace=wrap;html=1;rounded=1;labelPosition=left;verticalLabelPosition=middle;align=right;verticalAlign=middle;" vertex="1" parent="1">
          <mxGeometry x="190" y="140" width="20" height="105" as="geometry" />
        </mxCell>
        <mxCell id="rMbF7JVK91aowrzrqFm0-5" value="Data" style="rounded=0;whiteSpace=wrap;html=1;" vertex="1" parent="1">
          <mxGeometry x="240" y="140" width="230" height="100" as="geometry" />
        </mxCell>
        <mxCell id="rMbF7JVK91aowrzrqFm0-6" value="0x9000" style="text;html=1;strokeColor=none;fillColor=none;align=center;verticalAlign=middle;whiteSpace=wrap;rounded=0;" vertex="1" parent="1">
          <mxGeometry x="130" y="180" width="60" height="30" as="geometry" />
        </mxCell>
        <mxCell id="rMbF7JVK91aowrzrqFm0-8" value="" style="shape=curlyBracket;whiteSpace=wrap;html=1;rounded=1;labelPosition=left;verticalLabelPosition=middle;align=right;verticalAlign=middle;size=0.5;" vertex="1" parent="1">
          <mxGeometry x="190" y="120" width="20" height="20" as="geometry" />
        </mxCell>
        <mxCell id="rMbF7JVK91aowrzrqFm0-9" value="0xFFC" style="text;html=1;strokeColor=none;fillColor=none;align=center;verticalAlign=middle;whiteSpace=wrap;rounded=0;" vertex="1" parent="1">
          <mxGeometry x="130" y="112.5" width="60" height="30" as="geometry" />
        </mxCell>
        <mxCell id="rMbF7JVK91aowrzrqFm0-10" value="0x801000" style="text;html=1;strokeColor=none;fillColor=none;align=center;verticalAlign=middle;whiteSpace=wrap;rounded=0;" vertex="1" parent="1">
          <mxGeometry x="520" y="130" width="60" height="30" as="geometry" />
        </mxCell>
        <mxCell id="rMbF7JVK91aowrzrqFm0-11" value="" style="endArrow=none;dashed=1;html=1;dashPattern=1 3;strokeWidth=2;rounded=0;entryX=0;entryY=0.5;entryDx=0;entryDy=0;exitX=1;exitY=0;exitDx=0;exitDy=0;" edge="1" parent="1" source="rMbF7JVK91aowrzrqFm0-5" target="rMbF7JVK91aowrzrqFm0-10">
          <mxGeometry width="50" height="50" relative="1" as="geometry">
            <mxPoint x="470" y="220" as="sourcePoint" />
            <mxPoint x="520" y="170" as="targetPoint" />
          </mxGeometry>
        </mxCell>
      </root>
    </mxGraphModel>
  </diagram>
</mxfile>
